<?xml version="1.0" encoding="utf-8"?>
<!-- Generator: Adobe Illustrator 28.3.0, SVG Export Plug-In . SVG Version: 6.00 Build 0)  -->
<svg version="1.1" id="Layer_1" xmlns="http://www.w3.org/2000/svg" xmlns:xlink="http://www.w3.org/1999/xlink" x="0px" y="0px"
	 viewBox="0 0 1000 1000" style="enable-background:new 0 0 1000 1000;" xml:space="preserve">
<style type="text/css">
	.st0{fill-rule:evenodd;clip-rule:evenodd;fill:#F9A423;}
	.st1{fill-rule:evenodd;clip-rule:evenodd;fill:#0072AD;}
	.st2{fill-rule:evenodd;clip-rule:evenodd;fill:#1EA249;}
</style>
<g>
	<g>
		<path class="st0" d="M435.5,815.9c38-36.7,98.5-35.6,135.2,2.4c36.7,38,35.6,98.5-2.4,135.2c-38,36.7-98.5,35.6-135.2-2.5
			C396.4,913.1,397.5,852.6,435.5,815.9"/>
		<path class="st0" d="M185.4,745.5l126,53.8c46.9-99.5,164.5-144.8,266.5-101.2c49.5,21.2,86.4,59.5,106.8,105
			c18.8-8.4,37.4-17.4,56-26.1c22.8-10.7,45.8-20.3,69.3-29c-33.9-76.3-95.5-140.5-178.4-175.9C460.1,498.9,262.1,576.5,185.4,745.5
			z"/>
	</g>
	<g>
		<path class="st1" d="M865,310.9c-50.8-14.6-80.1-67.6-65.5-118.3c14.6-50.8,67.6-80.1,118.3-65.5c50.7,14.6,80.1,67.6,65.5,118.3
			C968.7,296.2,915.8,325.5,865,310.9"/>
		<path class="st1" d="M929.1,562.7l-16.4-136c-109.6,9.1-207.6-70.1-220.9-180.2c-6.4-53.5,8.3-104.6,37.6-145
			c-16.7-12.1-33.7-23.7-50.6-35.5c-20.7-14.4-40.5-29.5-59.8-45.6c-49.1,67.5-73.9,153-63.2,242.4
			C578.1,448.1,744.4,580.8,929.1,562.7z"/>
	</g>
	<g>
		<path class="st2" d="M201.3,201.1c12.7,51.2-18.5,103.1-69.7,115.9c-51.3,12.7-103.1-18.5-115.9-69.7C3,196,34.2,144.1,85.5,131.3
			C136.7,118.6,188.6,149.8,201.3,201.1"/>
		<path class="st2" d="M387.4,19.6l-109.6,82.2c62.7,90.4,43.1,214.9-45.6,281.4c-43.1,32.3-94.7,45.1-144.4,40
			c-2.1,20.5-3.7,41.1-5.4,61.6c-2.1,25.1-5.3,49.8-9.6,74.5c83,8.8,169.5-12.5,241.5-66.5C463.6,380.9,495.4,170.6,387.4,19.6z"/>
	</g>
</g>
</svg>
