<?xml version="1.0" encoding="utf-8"?>
<!-- Generator: Adobe Illustrator 28.3.0, SVG Export Plug-In . SVG Version: 6.00 Build 0)  -->
<svg version="1.1" id="Capa_1" xmlns="http://www.w3.org/2000/svg" xmlns:xlink="http://www.w3.org/1999/xlink" x="0px" y="0px"
	 viewBox="0 0 1000 1000" style="enable-background:new 0 0 1000 1000;" xml:space="preserve">
<g>
	<path d="M454.7,282.7c2.6,2.2,5.8,3.4,9.2,3.4c0.4,0,0.8,0,1.2-0.1c3.8-0.3,7.3-2.1,9.7-5l90.7-108.2c5-6,4.3-15-1.8-20
		c-6-5-15-4.3-20,1.8l-81.5,97.2l-37.3-31.6c-6-5.1-15-4.3-20,1.7c-5.1,6-4.3,15,1.7,20L454.7,282.7z"/>
	<path d="M490.7,412.4c48.5,0,97-18.5,133.9-55.4c35.8-35.7,55.4-83.3,55.4-133.8c0-50.6-19.7-98.1-55.4-133.9
		c-38.8-38.8-92.3-58.8-146.9-55c-54.8,3.8-105.2,31.1-138.2,74.8c-4.7,6.3-3.5,15.2,2.8,19.9c6.3,4.7,15.2,3.5,19.9-2.8
		c28-37.2,70.9-60.3,117.5-63.6c46.4-3.2,91.9,13.8,124.8,46.7c30.4,30.4,47.1,70.8,47.1,113.8c0,43-16.7,83.4-47.1,113.7
		c-62.8,62.7-164.9,62.7-227.7,0c-41.1-41.1-56.9-101.5-41.1-157.6c2.1-7.6-2.3-15.4-9.8-17.5c-7.5-2.1-15.4,2.3-17.5,9.8
		c-18.6,66-0.1,137,48.3,185.4C393.7,394,442.2,412.4,490.7,412.4L490.7,412.4z"/>
	<path d="M927.2,738.6c-4.7-2.7-9.6-5.5-14.6-8.4l-37.2-22.3c17.3-18.4,30.2-40.7,35.3-63c1.6-6.7,2.3-13.4,2.3-19.7v-94
		c0-42.8-32.2-81.4-82-98.3c-43.6-14.8-86.8-7.9-110.1,16.9c-23.9,4.2-57.3,23.1-56.2,96.4c0,0.6,0,1.2,0,1.6v77.5
		c0,6.3,0.8,12.9,2.3,19.6c5.1,22.4,18,44.7,35.3,63.1l-36.5,21.9c-0.3,0.1-0.5,0.3-0.8,0.5c-4.9,3-9.8,5.7-14.4,8.4
		c-14,7.9-27.6,15.6-38.1,26.4l-26.2-15.7c17.3-18.4,30.2-40.7,35.3-63c1.5-6.6,2.3-13.3,2.3-19.7v-41.8c0,0,0,0,0,0v-52.2
		c0-42.8-32.2-81.4-82-98.3c-43.6-14.8-86.8-8-110.1,16.9c-23.9,4.2-57.4,23.1-56.2,96.4c0,0.7,0,1.2,0,1.6v18v25.7v33.8
		c0,6.1,0.8,12.7,2.3,19.7c5.1,22.3,18,44.6,35.4,63L387.3,765c-10.5-10.8-24.1-18.5-38.1-26.5c-4.7-2.7-9.6-5.4-14.6-8.4l-0.4-0.2
		c0,0-0.1,0-0.1-0.1l-36.7-22c17.3-18.4,30.2-40.7,35.3-63c1.5-6.6,2.3-13.2,2.3-19.7v-41.9v-15.9v-36.2c0-42.8-32.2-81.4-82-98.3
		c-43.6-14.8-86.9-8-110.2,16.9c-23.9,4.2-57.3,23.1-56.2,96.4c0,0.7,0,1.2,0,1.6v18v25.7v33.8c0,6.5,0.8,13.1,2.3,19.6
		c5.1,22.4,18,44.7,35.3,63l-37.2,22.3c-5,3-9.8,5.7-14.5,8.4C43,755.5,15,771.4,15,817.9v83.5c0,2.8,0,11.4,6.2,17.6
		c5.2,5.1,11.6,5.7,16.4,5.7c0.7,0,1.4,0,2,0c0.7,0,1.4,0,2.1,0h140.2c0,0,0,0,0,0c0,0,0,0,0,0h29h0h28.9c0,0,0,0,0,0c0,0,0,0,0,0
		h64v18.3c0,2.8,0,11.5,6.3,17.6c5.2,5.1,11.6,5.7,16.4,5.7c0.7,0,1.4,0,2,0c0.7,0,1.4,0,2.1,0h16.4c7.8,0,14.2-6.4,14.2-14.2
		s-6.4-14.2-14.2-14.2h-14.7v-13.1v-28.4v-36.8c0-28.7,12.5-37,43.4-54.5c0.5-0.3,0.9-0.5,1.4-0.8c2-1.1,4-2.3,6-3.4l23.7,15.3
		l24.4,15.8c0.2,0.1,0.4,0.2,0.6,0.4c1.7,1,3.2,2,4.7,3c3,2,8.7,5.9,15.5,5.9c2.8,0,5.9-0.7,9-2.4l2,7.7l-27.7,60c0,0,0,0.1-0.1,0.1
		c-2.4,4.9-2,10.3,0.9,14.7l9.7,16.5h-33.3c-7.8,0-14.2,6.4-14.2,14.2s6.4,14.2,14.2,14.2h58.1h0h198.3c0.7,0,1.4,0,2.1,0
		c0.6,0,1.3,0,2,0c4.9,0,11.2-0.6,16.4-5.7c6.2-6.1,6.2-14.8,6.2-17.6v-18.3h121.9h0h140.3c0.7,0,1.4,0,2.1,0c0.6,0,1.3,0,2,0
		c4.8,0,11.2-0.6,16.4-5.7c6.2-6.1,6.2-14.7,6.2-17.5v-83.5C985,771.4,957,755.5,927.2,738.6L927.2,738.6z M300.5,742.8l-36.1,23.4
		c-1.5,0.9-2.8,1.7-4,2.5l-7.8-8.2c-0.1-0.1-0.3-0.3-0.4-0.4l-12.9-13.7c1.4-0.5,2.8-1,4.2-1.5c11-4.1,21.7-10,31.6-17.2
		L300.5,742.8z M151.5,477.2c4-0.3,7.6-2.3,10-5.5c14.4-18.7,48.3-23.7,82.5-12c28.9,9.9,62.7,34.5,62.7,71.4v36.2v1.7h-6
		c-14,0-23-7.8-36.6-20.5c-15.3-14.3-34.4-32.2-67.4-32.2h-25.5c-30.9,0-36.1,25.1-39.2,40.1c-3.5,17.3-5.2,20.6-16.5,20.6h-0.2
		v-11.5v-18c0-0.5,0-1.2,0-2.1C114.6,502.4,126.8,479.4,151.5,477.2L151.5,477.2z M116.8,638.5c-1-4.5-1.6-9-1.6-13.3v-19.6h0.2
		c35.5,0,41.3-28.2,44.4-43.3c3.6-17.4,5.1-17.4,11.3-17.4h25.5c21.8,0,34,11.4,48,24.5c14.1,13.2,30.1,28.2,56.1,28.2h6v27.7
		c0,4.3-0.5,8.8-1.6,13.3c-7.5,33-38.3,67.3-71.6,79.7c-8.5,3.2-15.7,4.7-22.6,4.7s-14-1.5-22.6-4.7
		C155.1,705.8,124.4,671.5,116.8,638.5L116.8,638.5z M226.2,773.9l-4.6,18.1h-21.3l-4.6-18l15.3-16.2L226.2,773.9z M146.9,727.6
		c10,7.2,20.6,13.1,31.6,17.2c1.4,0.5,2.9,1,4.3,1.5l-21.1,22.4c-1.2-0.8-2.5-1.6-4-2.5l-36.1-23.4L146.9,727.6z M147.2,879.4
		l9.8,16.7H43.4v-78.2c0-28.8,12.5-37,43.4-54.6c2.4-1.4,4.9-2.8,7.5-4.3l48.2,31.2c0.2,0.1,0.4,0.2,0.6,0.3c1.7,1,3.2,2,4.7,3
		c3.2,2.2,8.8,6.1,15.6,6.1c2.8,0,5.9-0.7,9-2.4l1.9,7.6l-27.7,60C144.2,869.5,144.4,874.9,147.2,879.4L147.2,879.4z M231.8,896.1
		H211c0,0,0,0,0,0h-20.9l-15-25.4l23.2-50.3h25.2l23.2,50.3L231.8,896.1z M304,859.3v36.8h-39.2l9.8-16.7c2.8-4.5,3.1-9.8,0.7-14.6
		l-27.7-60l2-7.7c3.2,1.8,6.3,2.5,9.1,2.5c6.8,0,12.4-3.9,15.7-6.1c1.4-1,2.9-2,4.6-3c0.2-0.1,0.4-0.2,0.5-0.3l48.2-31.2
		c2.5,1.5,5,2.9,7.4,4.3c11.2,6.3,19.9,11.5,26.6,16.8C332,797,304,812.9,304,859.3z M878.5,742.8l-36.1,23.3
		c-1.5,0.9-2.9,1.8-4.1,2.6l-7.8-8.2c-0.2-0.2-0.3-0.4-0.5-0.5l-12.8-13.6c1.4-0.5,2.8-1,4.2-1.5c11-4.1,21.7-10,31.6-17.2
		L878.5,742.8z M729.5,477.2c4-0.3,7.6-2.3,10-5.5c14.4-18.7,48.3-23.7,82.4-12c28.9,9.9,62.8,34.5,62.8,71.4v38h-6
		c-14,0-23-7.8-36.6-20.5c-15.3-14.3-34.3-32.2-67.5-32.2h-25.5c-30.9,0-36.1,25.1-39.1,40.1c-3.5,17.2-5.2,20.6-16.5,20.6h-0.3
		v-29.4c0-0.5,0-1.2,0-2C692.5,502.4,704.7,479.4,729.5,477.2L729.5,477.2z M694.9,638.5c-1.1-4.7-1.6-9.1-1.6-13.3v-19.6h0.3
		c35.4,0,41.2-28.2,44.3-43.3c3.6-17.4,5.1-17.4,11.3-17.4h25.5c21.9,0,34,11.3,48,24.5c14.1,13.2,30.1,28.2,56.1,28.2h6v27.7
		c0,4.2-0.5,8.6-1.6,13.3c-7.5,33-38.3,67.3-71.6,79.7c-8.5,3.2-15.6,4.7-22.5,4.7c-6.9,0-14-1.5-22.5-4.7
		C733.1,705.8,702.3,671.5,694.9,638.5L694.9,638.5z M804.2,773.9l-4.6,18h-21.4l-4.6-18l15.3-16.2L804.2,773.9z M724.8,727.6
		c9.9,7.2,20.6,13.1,31.6,17.2c1.4,0.5,2.9,1,4.3,1.5l-21.1,22.4c-1.2-0.8-2.5-1.6-4-2.5l-36.1-23.4L724.8,727.6z M589.5,784.3
		l-36.1,23.4c-1.5,0.9-2.9,1.7-4.1,2.5l-21.1-22.4c1.4-0.5,2.8-1,4.2-1.5c11-4.1,21.7-10,31.6-17.3L589.5,784.3z M440.5,518.7
		c4-0.3,7.6-2.3,10-5.5c14.4-18.7,48.3-23.6,82.4-12c28.9,9.9,62.7,34.5,62.7,71.4v36.2c0,0,0,0,0,0v1.8h-6c-14,0-23-7.8-36.6-20.5
		c-15.3-14.3-34.4-32.2-67.5-32.2h-25.5c-30.9,0-36.1,25.1-39.2,40.1c-3.5,17.2-5.2,20.6-16.5,20.6h-0.3v-11.5v-18
		c0-0.5,0-1.2,0-2.1C403.5,543.9,415.8,520.9,440.5,518.7L440.5,518.7z M405.9,680.1c-1.1-4.9-1.6-9.4-1.6-13.5v-19.6h0.3
		c35.4,0,41.2-28.2,44.3-43.3c3.6-17.4,5.1-17.4,11.3-17.4h25.5c21.9,0,34,11.4,48,24.5c14.1,13.2,30.1,28.2,56,28.2h6v27.6
		c0,4.3-0.5,8.8-1.6,13.4c-7.5,33-38.3,67.2-71.5,79.7c-8.6,3.2-15.8,4.7-22.6,4.7c-6.7,0-13.9-1.5-22.6-4.7
		C444.1,747.2,413.4,713,405.9,680.1L405.9,680.1z M515.2,815.4l-4.6,18h-21.4l-4.6-18l15.3-16.2L515.2,815.4z M450.6,810.1
		c-1.2-0.8-2.5-1.6-4-2.5l-36.1-23.4l25.3-15.2c10,7.2,20.7,13.1,31.7,17.3c1.4,0.5,2.8,1,4.2,1.5L450.6,810.1z M520.8,937.6H479
		l-14.9-25.4l23.2-50.3h25.3l23.2,50.4L520.8,937.6z M667.6,937.6H553.8l9.9-16.7c2.7-4.4,3.1-9.8,0.7-14.5c0,0,0-0.1-0.1-0.1
		l-27.6-60l2-7.6c3.2,1.8,6.2,2.5,9.1,2.5c6.8,0,12.4-3.8,15.6-6c1.5-1,3-2,4.7-3c0.2-0.1,0.4-0.2,0.6-0.4l48.1-31.2
		c2,1.2,4,2.3,6,3.4c0.5,0.3,1,0.6,1.5,0.9c30.9,17.5,43.4,25.8,43.4,54.5L667.6,937.6z M725.4,879.6l9.7,16.5h-39v-36.8
		c0-46.4-28.1-62.3-57.8-79.2c0,0,0,0,0,0c6.6-5.3,15.4-10.5,26.5-16.8c2.4-1.4,4.9-2.8,7.5-4.3l48.1,31.1c0.2,0.1,0.4,0.2,0.5,0.4
		c1.7,1,3.2,2,4.7,3c3,2,8.7,6,15.6,6c2.8,0,5.9-0.7,9-2.4l2,7.7l-27.7,60c0,0,0,0,0,0C722.1,869.7,722.4,875.1,725.4,879.6
		L725.4,879.6z M809.8,896.1H768l-14.9-25.4l23.2-50.3h25.3l23.2,50.3L809.8,896.1z M956.6,896.1H842.8l9.8-16.7
		c2.7-4.2,3.1-9.2,1.1-13.7c-0.1-0.3-0.2-0.6-0.4-0.9l-27.7-60l2-7.6c3.2,1.8,6.2,2.5,9.1,2.5c6.8,0,12.4-3.9,15.7-6.1
		c1.4-1,2.9-2,4.6-3c0.2-0.1,0.4-0.2,0.6-0.4l48.1-31.1c2.5,1.5,5,2.9,7.5,4.3c30.9,17.5,43.4,25.8,43.4,54.6V896.1z"/>
</g>
</svg>
