<?xml version="1.0" encoding="utf-8"?>
<!-- Generator: Adobe Illustrator 28.3.0, SVG Export Plug-In . SVG Version: 6.00 Build 0)  -->
<svg version="1.1" id="svg3654" xmlns:svg="http://www.w3.org/2000/svg"
	 xmlns="http://www.w3.org/2000/svg" xmlns:xlink="http://www.w3.org/1999/xlink" x="0px" y="0px" viewBox="0 0 1000 1000"
	 style="enable-background:new 0 0 1000 1000;" xml:space="preserve">
<style type="text/css">
	.st0{clip-path:url(#SVGID_00000129200855998575238360000003643376010686827182_);}
	.st1{fill:none;stroke:#000000;stroke-width:28.4433;stroke-linecap:round;stroke-linejoin:round;stroke-miterlimit:13.3333;}
</style>
<g id="g3660" transform="matrix(1.3333333,0,0,-1.3333333,0,682.66667)">
	<g id="g3662">
		<g>
			<defs>
				<rect id="SVGID_1_" x="-110.4" y="-348.4" width="970.9" height="970.9"/>
			</defs>
			<clipPath id="SVGID_00000141445271631318836970000003083509216288308622_">
				<use xlink:href="#SVGID_1_"  style="overflow:visible;"/>
			</clipPath>
			<g id="g3664" style="clip-path:url(#SVGID_00000141445271631318836970000003083509216288308622_);">
				<g id="g3670" transform="translate(291.0713,18.9902)">
					<path id="path3672" class="st1" d="M133.8-219.1h-317.6v529c0,14.8,9.5,28,23.5,32.7l294,98.8V-219.1z"/>
				</g>
				<g id="g3674" transform="translate(416.75,65.6499)">
					<path id="path3676" class="st1" d="M186.9-199.4v-66.4H8.1V92.7h197.2c13.1,0,23.7-10.6,23.7-23.7v-189.7"/>
				</g>
				<g id="g3678" transform="translate(291.0713,18.9902)">
					<path id="path3680" class="st1" d="M133.8-219.1h287.5c8.9,0,16,7.2,16,16v50.3H133.8V-219.1z"/>
				</g>
				<g id="g3682" transform="translate(458.5078,122.7744)">
					<path id="path3684" class="st1" d="M204.5-175.2h6c32.8,0,59.4-26.6,59.4-59.4v-21.9H145.1v21.9
						C145.1-201.8,171.7-175.2,204.5-175.2z"/>
				</g>
				<g id="g3686" transform="translate(18.7764,18.9902)">
					<path id="path3688" class="st1" d="M18.9-219.1h69.7v66.4H2.8V-203C2.8-211.9,10-219.1,18.9-219.1z"/>
				</g>
				<g id="g3690" transform="translate(61.8696,122.7744)">
					<path id="path3692" class="st1" d="M37-175.2h8.4v-81.2h-85.7v3.9C-40.3-209.9-5.7-175.2,37-175.2z"/>
				</g>
				<g id="g3694" transform="translate(368.7231,271.0049)">
					<path id="path3696" class="st1" d="M166.6-112.7H56.2v302.2l99.9-96.6c6.7-6.5,10.5-15.5,10.5-24.8V-62.4"/>
				</g>
				<g id="g3698" transform="translate(122.3901,426.77)">
					<path id="path3700" class="st1" d="M62.6-46.9v72c0,12.2,9.9,22.2,22.2,22.2H87c12.2,0,22.2-9.9,22.2-22.2v-56.4"/>
				</g>
				<g id="g3702" transform="translate(291.0698,426.7798)">
					<path id="path3704" class="st1" d="M133.8-46.9l-239.9-80.6"/>
				</g>
				<g id="g3706" transform="translate(291.0698,372.7998)">
					<path id="path3708" class="st1" d="M133.8-69.7l-239.9-80.6"/>
				</g>
				<g id="g3710" transform="translate(291.0698,318.8198)">
					<path id="path3712" class="st1" d="M133.8-92.5l-239.9-80.6"/>
				</g>
				<g id="g3714" transform="translate(291.0698,264.8398)">
					<path id="path3716" class="st1" d="M133.8-115.3l-239.9-80.6"/>
				</g>
				<g id="g3718" transform="translate(150.2363,163.5205)">
					<path id="path3720" class="st1" d="M74.4-158l-39.6-13.3"/>
				</g>
				<g id="g3722" transform="translate(291.0698,210.8599)">
					<path id="path3724" class="st1" d="M133.8-138.1l-152.5-51.3"/>
				</g>
				<g id="g3726" transform="translate(211.2773,18.9902)">
					<path id="path3728" class="st1" d="M100.1-219.1H-26.3v90.6c0,7,4.7,13.2,11.4,15.1l99.3,27.7c7.9,2.2,15.7-3.7,15.7-11.9
						V-219.1z"/>
				</g>
				<g id="g3730" transform="translate(404.9683,209.1401)">
					<path id="path3732" class="st1" d="M181.9-138.8H77.3c-4,0-7.3,3.3-7.3,7.3v25.7c0,4,3.3,7.3,7.3,7.3h104.6
						c4,0,7.3-3.3,7.3-7.3v-25.7C189.2-135.5,185.9-138.8,181.9-138.8z"/>
				</g>
				<g id="g3734" transform="translate(404.9683,152.1099)">
					<path id="path3736" class="st1" d="M181.9-162.9H77.3c-4,0-7.3,3.3-7.3,7.3v25.7c0,4,3.3,7.3,7.3,7.3h104.6
						c4,0,7.3-3.3,7.3-7.3v-25.7C189.2-159.6,185.9-162.9,181.9-162.9z"/>
				</g>
				<g id="g3738" transform="translate(355.7451,94.4971)">
					<path id="path3740" class="st1" d="M161.1-187.2h-34.6c-4,0-7.3,3.3-7.3,7.3v25.7c0,4,3.3,7.3,7.3,7.3h34.6
						c4,0,7.3-3.3,7.3-7.3v-25.7C168.4-183.9,165.2-187.2,161.1-187.2z"/>
				</g>
				<g id="g3742" transform="translate(166.8345,103.4688)">
					<path id="path3744" class="st1" d="M81.4-183.4v-120.1"/>
				</g>
			</g>
		</g>
	</g>
</g>
</svg>
