<?xml version="1.0" encoding="utf-8"?>
<!-- Generator: Adobe Illustrator 28.3.0, SVG Export Plug-In . SVG Version: 6.00 Build 0)  -->
<svg version="1.1" id="Capa_1" xmlns="http://www.w3.org/2000/svg" xmlns:xlink="http://www.w3.org/1999/xlink" x="0px" y="0px"
	 viewBox="0 0 1000 1000" style="enable-background:new 0 0 1000 1000;" xml:space="preserve">
<g>
	<g>
		<path d="M564,433.4h28.4v39.7H564V433.4z"/>
		<path d="M629.1,433.4h28.4v39.7h-28.4V433.4z"/>
		<path d="M694.3,433.4h28.4v39.7h-28.4V433.4z"/>
		<path d="M629.1,509.7h28.4v39.7h-28.4V509.7z"/>
		<path d="M694.3,509.7h28.4v39.7h-28.4V509.7z"/>
		<path d="M629.1,103.5h28.4v39.7h-28.4V103.5z"/>
		<path d="M275.4,433.4h28.4v39.7h-28.4V433.4z"/>
		<path d="M340.6,433.4h28.4v39.7h-28.4V433.4z"/>
		<path d="M405.8,433.4h28.4v39.7h-28.4V433.4z"/>
		<path d="M275.4,509.7h28.4v39.7h-28.4V509.7z"/>
		<path d="M340.6,509.7h28.4v39.7h-28.4V509.7z"/>
		<path d="M455.3,257.3c7.8,0,14.2-6.3,14.2-14.2v-10.9c0-7.8-6.3-14.2-14.2-14.2s-14.2,6.3-14.2,14.2v10.9
			C441.1,250.9,447.5,257.3,455.3,257.3z"/>
		<path d="M544.7,257.3c7.8,0,14.2-6.3,14.2-14.2v-10.9c0-7.8-6.3-14.2-14.2-14.2s-14.2,6.3-14.2,14.2v10.9
			C530.5,250.9,536.9,257.3,544.7,257.3z"/>
		<path d="M450.9,298.5c-5.5,5.5-5.5,14.5,0,20.1c13.1,13.1,30.5,20.3,49.1,20.3c18.5,0,36-7.2,49.1-20.3c5.5-5.5,5.5-14.5,0-20.1
			c-5.5-5.5-14.5-5.5-20.1,0c-7.8,7.8-18.1,12-29,12s-21.3-4.3-29-12C465.4,293,456.5,293,450.9,298.5z"/>
		<path d="M865.7,725.2h-11.3c17.3-17.4,28-41.3,28-67.7c0-45.7-32.1-84-75-93.7v-50.6c0-7.8-6.3-14.2-14.2-14.2
			s-14.2,6.3-14.2,14.2v48.6c-49.5,3.7-88.7,45.2-88.7,95.7c0,26.4,10.7,50.3,28,67.7h-11.3c-13,0-25.8,3.2-37.2,9.2
			c-17.3-21.6-43.9-35.5-73.6-35.5h-21.5c23.4-20.7,38.2-50.9,38.2-84.6v-42c0-56.3-43.5-102.6-98.7-107.1V446
			c1.2-1.1,2.3-2.3,3.3-3.7l12.4-17.7c1.4-1.9,3.5-3.3,6-3.9c69.9-16.6,118.8-78.4,118.8-150.4c0-17.6-2.9-34.8-8.5-50.9h11.4v-39.7
			h-28.4v5.5c-6.4-9.6-13.8-18.6-22.4-26.8c-5.9-5.6-12.2-10.7-18.7-15.3h4.3v-39.7H564v26c-15.6-7.1-32.4-11.6-49.8-13.1V49
			c0-2.6,2.1-4.7,4.7-4.7h178.5c2.6,0,4.7,2.1,4.7,4.7v293.4c0,13,10.6,23.6,23.6,23.6h48.6c2.6,0,4.7,2.1,4.7,4.7v76.3
			c0,7.8,6.3,14.2,14.2,14.2c7.8,0,14.2-6.3,14.2-14.2v-76.3c0-18.2-14.8-33.1-33.1-33.1h-43.8V49c0-18.2-14.8-33.1-33.1-33.1H518.9
			c-18.2,0-33.1,14.8-33.1,33.1v67.4c-43.5,4-82.7,26.8-108.6,60.4h-70.1c-18.2,0-33.1,14.8-33.1,33.1v99.3h-41.5
			c-18.2,0-33.1,14.8-33.1,33.1v220.3c-46.2,6.9-81.8,46.8-81.8,95c0,26.4,10.7,50.3,28,67.7h-11.3c-44.2,0-80.2,36-80.2,80.2v92.1
			c0,24.7,20.1,44.7,44.7,44.7h26.8c7.8,0,14.2-6.3,14.2-14.2c0-7.8-6.3-14.2-14.2-14.2H98.8c-9,0-16.4-7.3-16.4-16.4v-92.1
			c0-28.6,23.3-51.8,51.8-51.8h158.7c8.1,0,15.9,1.9,23,5.4c-4.2,10.6-6.5,22.2-6.5,34.3v120.6H191.8c-7.8,0-14.2,6.3-14.2,14.2
			c0,7.8,6.3,14.2,14.2,14.2h117.8c1.5,23.3,20.9,41.9,44.6,41.9h291.7c23.7,0,43.1-18.5,44.6-41.9h210.7
			c24.7,0,44.7-20.1,44.7-44.7v-92.1C945.9,761.2,910,725.2,865.7,725.2L865.7,725.2z M584.6,614.4c0,46.6-37.9,84.6-84.6,84.6
			c-46.6,0-84.6-37.9-84.6-84.6v-15.2h67c18.3,0,35.8-7.4,48.5-20.3c12.7,12.9,30.1,20.3,48.5,20.3h5.2V614.4z M519,727.3
			l-10.2,36.6h-17.6L481,727.3H519z M584.5,570.8h-5.1c-12.9,0-25-6.3-32.5-16.9c-3.7-5.2-9.6-8.3-16-8.3s-12.3,3.1-16,8.3
			c-7.4,10.6-19.6,16.9-32.5,16.9h-66.9c0.9-42.9,36-77.6,79.1-77.6h10.8C548.5,493.3,583.6,527.9,584.5,570.8L584.5,570.8z
			 M213.6,725.2c-37.3,0-67.7-30.3-67.7-67.7s30.3-67.7,67.7-67.7c37.3,0,67.7,30.3,67.7,67.7C281.3,694.8,250.9,725.2,213.6,725.2
			L213.6,725.2z M330.1,734.4c-11.4-6-24.2-9.2-37.2-9.2h-11.3c17.3-17.4,28-41.3,28-67.7c0-48.1-35.6-88.1-81.8-95V342.3
			c0-2.6,2.1-4.7,4.7-4.7h46.2c13,0,23.6-10.6,23.6-23.6v-104c0-2.6,2.1-4.7,4.7-4.7h52.8c-5.5,11.6-9.5,24-11.9,37
			c-1.4,7.7,3.7,15.1,11.4,16.5c7.7,1.4,15.1-3.7,16.5-11.4c10.6-57.1,60.2-100.4,118.1-103.1c34.9-1.6,68,10.7,93.2,34.8
			c25.2,24.1,39.1,56.5,39.1,91.3c0,58.7-39.9,109.2-96.9,122.8c-9.3,2.2-17.3,7.6-22.7,15.3l-6.6,9.5l-6.6-9.5
			c-5.3-7.6-13.4-13.1-22.7-15.3c-43.5-10.4-78.6-43.4-91.5-86.3c-2.3-7.5-10.2-11.8-17.7-9.5c-7.5,2.3-11.7,10.2-9.5,17.7
			c15.8,52.5,58.8,93,112.1,105.7c2.6,0.6,4.7,2,6.1,4l12.4,17.7c1,1.4,2.1,2.6,3.3,3.7v19.3c-55.2,4.5-98.7,50.8-98.7,107.1v42
			c0,33.6,14.8,63.8,38.2,84.6h-21.5C374,698.9,347.4,712.8,330.1,734.4L330.1,734.4z M443.9,955.7h-89.7c-9,0-16.4-7.3-16.4-16.4
			V793.2c0-36.4,29.6-65.9,65.9-65.9h47.8l14.4,51.9L443.9,955.7z M472.5,955.7l20.4-163.4H507l20.5,163.4H472.5z M662.2,939.3
			c0,9-7.3,16.4-16.4,16.4h-89.7L534,779.2l14.5-51.9h47.8c36.4,0,65.9,29.6,65.9,65.9L662.2,939.3z M786.4,589.9
			c37.3,0,67.7,30.3,67.7,67.7c0,37.3-30.3,67.7-67.7,67.7s-67.7-30.3-67.7-67.7C718.7,620.2,749.1,589.9,786.4,589.9L786.4,589.9z
			 M917.6,897.5c0,9-7.3,16.4-16.4,16.4H690.6V793.2c0-12.1-2.3-23.6-6.5-34.3c7.1-3.5,14.9-5.4,23-5.4h158.7
			c28.6,0,51.8,23.3,51.8,51.8L917.6,897.5z"/>
	</g>
</g>
</svg>
